<svg width="68" height="64" viewBox="0 0 68 64" fill="none" xmlns="http://www.w3.org/2000/svg">
<path fill-rule="evenodd" clip-rule="evenodd" d="M28.8158 4.60271C29.5743 6.61984 29.4083 8.80166 28.3995 10.7006L31.7774 12.6528L26.6649 21.4797L26.1137 21.1626C25.0028 20.523 23.5684 20.9061 22.9268 22.014L0 61.5993V3.24849H24.4977C26.2751 2.53197 25.3981 0.500106 23.5816 0C25.9867 0.568498 27.9512 2.29571 28.8158 4.60271ZM49.2682 52.6551H45.3297V56.5821H49.2682V52.6551ZM43.3605 56.5821V52.6551H39.4213V56.5821H43.3605ZM39.4213 50.7736H43.3605V46.8467H39.4213V50.7736ZM49.2682 46.8467H45.3297V50.7736H49.2682V46.8467ZM44.3443 23.1615L68 64V3.24849H36.4814L43.3472 7.19954C43.8828 7.50804 43.6567 8.07385 43.6567 8.07385C42.6284 11.0228 47.0417 13.3375 48.8511 10.3676L53.6346 13.1206L48.3662 22.2172L43.5826 19.4645C45.2066 16.5121 41.1979 13.6942 38.9504 16.1718C38.4234 16.7531 37.7888 16.1275 36.6038 15.4428L31.4967 24.2603L32.0471 24.5774C33.1588 25.2174 33.5432 26.6473 32.9016 27.7552L11.9105 64H20.6956C28.5796 50.3874 36.4611 36.7736 44.3443 23.1615Z" fill="#EDF4F7"/>
</svg>
