<svg aria-hidden="true" style="position: absolute; width: 0; height: 0; overflow: hidden;" version="1.1" xmlns="http://www.w3.org/2000/svg" xmlns:xlink="http://www.w3.org/1999/xlink">
<defs>
<symbol id="icon-arrow" viewBox="0 0 22 32">
<path stroke-linejoin="miter" stroke-linecap="round" stroke-miterlimit="4" stroke-width="3.2" d="M2.068 29.931c-0.625-0.625-0.625-1.638 0-2.263l11.669-11.669-11.669-11.669c-0.625-0.625-0.625-1.638 0-2.263s1.638-0.625 2.263 0l13.931 13.931-13.931 13.931c-0.625 0.625-1.638 0.625-2.263 0z"></path>
</symbol>
<symbol id="icon-phone" viewBox="0 0 32 32">
<path stroke-linejoin="miter" stroke-linecap="butt" stroke-miterlimit="4" stroke-width="2.4615" d="M1.231 8.613c-0.003-1.804 0.651-3.547 1.839-4.904 1.185-1.354 2.82-2.233 4.603-2.471l0.002 0.002c0.263-0.032 0.529 0.022 0.76 0.154s0.414 0.334 0.519 0.577l0.005 0.014 3.142 7.012v0.012l0.101 0.236c0.081 0.186 0.115 0.389 0.099 0.591-0.017 0.198-0.081 0.39-0.188 0.558-0 0.001-0.002 0.003-0.005 0.007l-3.721 4.411 0.356 0.724c1.275 2.59 3.924 5.215 6.538 6.488l0.724 0.351 4.358-3.707c0.17-0.114 0.366-0.183 0.57-0.202s0.41 0.016 0.599 0.096l7.262 3.252c0.244 0.105 0.449 0.289 0.582 0.519s0.183 0.496 0.151 0.76c-0.238 1.784-1.112 3.42-2.466 4.606-1.357 1.188-3.1 1.842-4.904 1.839h-0.002c-11.536 0-20.923-9.388-20.923-20.923v-0.002z"></path>
</symbol>
<symbol id="icon-close" viewBox="0 0 32 32">
<path d="M31.533 29.269c0.149 0.149 0.267 0.325 0.347 0.519s0.122 0.402 0.122 0.613-0.042 0.418-0.122 0.613c-0.080 0.194-0.198 0.371-0.347 0.519s-0.325 0.267-0.519 0.347c-0.194 0.080-0.402 0.122-0.613 0.122s-0.418-0.042-0.613-0.122c-0.194-0.080-0.371-0.198-0.519-0.347l-13.268-13.27-13.268 13.27c-0.3 0.3-0.707 0.469-1.132 0.469s-0.832-0.169-1.132-0.469c-0.3-0.3-0.469-0.707-0.469-1.132s0.169-0.832 0.469-1.132l13.27-13.268-13.27-13.268c-0.3-0.3-0.469-0.707-0.469-1.132s0.169-0.832 0.469-1.132c0.3-0.3 0.707-0.469 1.132-0.469s0.832 0.169 1.132 0.469l13.268 13.27 13.268-13.27c0.3-0.3 0.707-0.469 1.132-0.469s0.832 0.169 1.132 0.469c0.3 0.3 0.469 0.707 0.469 1.132s-0.169 0.832-0.469 1.132l-13.27 13.268 13.27 13.268z"></path>
</symbol>
<symbol id="icon-arrow-prev" viewBox="0 0 38 32">
<path d="M38.401 16.001c0 0.424-0.169 0.831-0.469 1.131s-0.707 0.469-1.131 0.469h-31.338l11.67 11.668c0.149 0.149 0.267 0.325 0.347 0.519s0.122 0.402 0.122 0.613c0 0.21-0.041 0.418-0.122 0.613s-0.198 0.371-0.347 0.519c-0.149 0.149-0.325 0.267-0.519 0.347s-0.402 0.122-0.613 0.122c-0.21 0-0.418-0.042-0.613-0.122s-0.371-0.198-0.519-0.347l-14.4-14.4c-0.149-0.149-0.267-0.325-0.347-0.519s-0.122-0.402-0.122-0.613c0-0.21 0.041-0.418 0.122-0.613s0.199-0.371 0.347-0.519l14.4-14.4c0.3-0.3 0.707-0.469 1.132-0.469s0.832 0.169 1.132 0.469 0.469 0.707 0.469 1.132c0 0.425-0.169 0.832-0.469 1.132l-11.67 11.668h31.338c0.424 0 0.831 0.169 1.131 0.469s0.469 0.707 0.469 1.131z"></path>
</symbol>
<symbol id="icon-arrow-next" viewBox="0 0 38 32">
<path d="M37.932 17.133l-14.4 14.4c-0.3 0.3-0.707 0.469-1.132 0.469s-0.832-0.169-1.132-0.469c-0.3-0.3-0.469-0.707-0.469-1.132s0.169-0.832 0.469-1.132l11.67-11.668h-31.338c-0.424 0-0.831-0.169-1.131-0.469s-0.469-0.707-0.469-1.131c0-0.424 0.169-0.831 0.469-1.131s0.707-0.469 1.131-0.469h31.338l-11.67-11.668c-0.3-0.3-0.469-0.707-0.469-1.132s0.169-0.832 0.469-1.132c0.3-0.3 0.707-0.469 1.132-0.469s0.832 0.169 1.132 0.469l14.4 14.4c0.148 0.149 0.267 0.325 0.347 0.519s0.122 0.402 0.122 0.613-0.042 0.418-0.122 0.613c-0.081 0.194-0.199 0.371-0.347 0.519z"></path>
</symbol>
</defs>
</svg>
