<!-- Generated by IcoMoon.io -->
<svg version="1.1" xmlns="http://www.w3.org/2000/svg" width="32" height="32" viewBox="0 0 32 32">
<path stroke-linejoin="miter" stroke-linecap="butt" stroke-miterlimit="4" stroke-width="2.4615" stroke="#000" fill="#000" d="M1.231 8.613c-0.003-1.804 0.651-3.547 1.839-4.904 1.185-1.354 2.82-2.233 4.603-2.471l0.002 0.002c0.263-0.032 0.529 0.022 0.76 0.154s0.414 0.334 0.519 0.577l0.005 0.014 3.142 7.012v0.012l0.101 0.236c0.081 0.186 0.115 0.389 0.099 0.591-0.017 0.198-0.081 0.39-0.188 0.558-0 0.001-0.002 0.003-0.005 0.007l-3.721 4.411 0.356 0.724c1.275 2.59 3.924 5.215 6.538 6.488l0.724 0.351 4.358-3.707c0.17-0.114 0.366-0.183 0.57-0.202s0.41 0.016 0.599 0.096l7.262 3.252c0.244 0.105 0.449 0.289 0.582 0.519s0.183 0.496 0.151 0.76c-0.238 1.784-1.112 3.42-2.466 4.606-1.357 1.188-3.1 1.842-4.904 1.839h-0.002c-11.536 0-20.923-9.388-20.923-20.923v-0.002z"></path>
</svg>
